# xmcd
#
# Track frame offsets: 
#        150
#        16086
#        33187
#        47586
#        60485
#        73352
#        91386
#        102915
#        113525
#        126274
#        143465
#        158241
#        177674
#        190985
#        200696
#        218210
#
# Disc length: 3100 seconds
#
# Revision: 0
# Processed by: cddbd v1.5.2PL0 Copyright (c) Steve Scherf et al.
# Submitted via: ExactAudioCopyFreeDBPlugin 1.0
#
DISCID=e00c1a10
DTITLE=Gareth Wiecko - Notes to Self
DYEAR=2011
DGENRE=Instrumental
TTITLE0=Already Seen
TTITLE1=Cavorting on Water
TTITLE2=Broken Wings
TTITLE3=Blue Saloon
TTITLE4=My Dulcet Lament
TTITLE5=The Storm
TTITLE6=Dirge
TTITLE7=Stranded
TTITLE8=Roses are Blue
TTITLE9=Sacrosanct
TTITLE10=Krapela
TTITLE11=Prelude in G Minor
TTITLE12=Apathy
TTITLE13=A Little Bit Blues
TTITLE14=unnamed
TTITLE15=unnamed
EXTD=
EXTT0=
EXTT1=
EXTT2=
EXTT3=
EXTT4=
EXTT5=
EXTT6=
EXTT7=
EXTT8=
EXTT9=
EXTT10=
EXTT11=
EXTT12=
EXTT13=
EXTT14=
EXTT15=
PLAYORDER=
